<!-- Generator: Adobe Illustrator 22.0.1, SVG Export Plug-In  -->
<svg version="1.1"
	 xmlns="http://www.w3.org/2000/svg" xmlns:xlink="http://www.w3.org/1999/xlink" xmlns:a="http://ns.adobe.com/AdobeSVGViewerExtensions/3.0/"
	 x="0px" y="0px" width="835px" height="375.8px" viewBox="0 0 835 375.8" style="enable-background:new 0 0 835 375.8;"
	 xml:space="preserve">
<style type="text/css">
	.st0{fill:#00A8E0;}
	.st1{fill:#003B70;}
	.st2{fill:#D9261C;}
	.st3{fill:#EA4335;}
	.st4{fill:#FBBC05;}
	.st5{fill:#4285F4;}
	.st6{fill:#34A853;}
	.st7{fill:#00354F;}
	.st8{fill:#56D400;}
	.st9{fill:#00BDFF;}
	.st10{fill:#231F20;}
	.st11{fill:#F79410;}
	.st12{fill:#FF5F00;}
	.st13{fill:#EB001B;}
	.st14{fill:#F79E1B;}
	.st15{fill:#FD5A1E;}
	.st16{fill:#8B274C;}
	.st17{fill:#ECB73A;}
	.st18{fill:#A81D36;}
	.st19{fill:#C1131E;stroke:#C1111E;stroke-miterlimit:3.8637;}
	.st20{fill:#FFFFFF;}
	.st21{fill-rule:evenodd;clip-rule:evenodd;}
	.st22{clip-path:url(#SVGID_3_);}
	.st23{fill:#00B9F2;}
	.st24{clip-path:url(#SVGID_7_);}
</style>
<defs>
</defs>
<g>
	<g>
		<g id="g3_1_">
			<path id="path5_1_" d="M198.9,64.2c-0.6,0-0.9-0.4-0.9-0.9V35.9h-9.4c-0.5,0-0.9-0.4-0.9-0.9v-3.7c0-0.5,0.4-0.9,0.9-0.9h25
				c0.5,0,0.9,0.4,0.9,0.9V35c0,0.5-0.4,0.9-0.9,0.9h-9.4v27.4c0,0.5-0.4,0.9-0.9,0.9h-4.4 M127.5,50.6l-4.9-14l-4.9,14H127.5z
				 M138.4,63.1c0.2,0.6-0.1,1.1-0.7,1.1h-4.5c-0.6,0-1-0.3-1.2-0.9l-2.5-7.2h-13.6l-2.5,7.2c-0.2,0.6-0.6,0.9-1.2,0.9h-4.2
				c-0.6,0-0.9-0.6-0.7-1.1l11.5-32c0.2-0.6,0.6-0.8,1.2-0.8h5.7c0.6,0,1.1,0.3,1.3,0.9L138.4,63.1 M171.4,59.6c2.7,0,4.5-1.3,6-3.6
				l-6.9-7.4c-2.6,1.5-4.3,3-4.3,5.9C166.2,57.6,168.6,59.6,171.4,59.6 M173.3,34.7c-2.2,0-3.5,1.4-3.5,3.3c0,1.4,0.8,2.7,2.5,4.6
				c3-1.7,4.3-2.8,4.3-4.7C176.6,36.2,175.5,34.7,173.3,34.7 M192.2,63c0.6,0.6,0.2,1.2-0.5,1.2h-5.4c-0.7,0-1.1-0.2-1.6-0.7
				l-3.2-3.6c-2.2,2.9-5.2,5.1-10.3,5.1c-6.2,0-11.1-3.8-11.1-10.2c0-5,2.6-7.6,6.7-9.8c-2-2.3-2.9-4.7-2.9-6.7
				c0-5.3,3.7-8.9,9.3-8.9c5.7,0,9.2,3.4,9.2,8.4c0,4.3-3.1,6.7-6.3,8.5l4.8,5.2l2.7-4.7c0.3-0.6,0.7-0.8,1.4-0.8h4.1
				c0.7,0,1.1,0.5,0.6,1.2l-4.8,8.2L192.2,63 M149.6,64.2c0.6,0,0.9-0.4,0.9-0.9V35.9h9.4c0.5,0,0.9-0.4,0.9-0.9v-3.7
				c0-0.5-0.4-0.9-0.9-0.9h-24.8c-0.5,0-0.9,0.4-0.9,0.9V35c0,0.5,0.4,0.9,0.9,0.9h9.2v27.4c0,0.5,0.4,0.9,0.9,0.9H149.6L149.6,64.2
				z"/>
			<path id="path9_1_" class="st0" d="M23.9,80.8c7.2,5.6,16.3,8.9,26.1,8.9c10.7,0,20.5-4,28-10.5c0.1-0.1,0-0.1,0-0.1
				c-3.4,2.2-12.9,7.1-28,7.1C36.9,86.2,28.6,83.3,23.9,80.8C23.9,80.6,23.9,80.7,23.9,80.8 M52.9,82.9c10.5,0,22-2.9,28.8-8.5
				c1.9-1.5,3.7-3.6,5.3-6.3c0.9-1.6,1.8-3.5,2.6-5.3c0-0.1,0-0.1-0.1,0C83.1,72.2,64.6,78,45.4,78c-13.5,0-28.1-4.3-33.7-12.6
				c-0.1-0.1-0.1,0-0.1,0C16.9,76.8,33,82.9,52.9,82.9 M41.5,64.2c-21.8,0-32-10.1-33.9-17.1c0-0.1-0.1-0.1-0.1,0
				c0,2.3,0.2,5.3,0.6,7.3c0.2,1,1,2.5,2.1,3.7c5.3,5.5,18.4,13.2,41.2,13.2c31,0,38.1-10.3,39.5-13.7c1-2.4,1.6-6.8,1.6-10.5
				c0-0.9,0-1.6-0.1-2.3c0-0.1-0.1-0.1-0.1,0C90.8,53.2,64.3,64.2,41.5,64.2 M11.6,29c-1.2,2.5-2.6,6.6-3,8.8
				c-0.2,0.9-0.1,1.4,0.2,2.1c2.6,5.5,15.8,14.4,46.6,14.4c18.8,0,33.4-4.6,35.7-13c0.4-1.5,0.5-3.2-0.1-5.4
				c-0.6-2.5-1.8-5.3-2.8-7.4c0-0.1-0.1-0.1-0.1,0c0.4,11-30.4,18.2-46,18.2c-16.8,0-30.9-6.7-30.9-15.2
				C11.3,30.6,11.4,29.8,11.6,29C11.7,28.9,11.6,28.9,11.6,29 M78.1,15.4c0.2,0.3,0.3,0.6,0.3,1c0,4.7-14.5,13.1-37.5,13.1
				c-16.9,0-20.1-6.3-20.1-10.3c0-1.4,0.5-2.9,1.8-4.4c0.1-0.1,0-0.1-0.1-0.1c-2.2,1.9-4.2,4-6,6.2c-0.8,1.1-1.4,2-1.4,2.6
				c0,8.3,20.7,14.3,40.1,14.3c20.6,0,29.9-6.7,29.9-12.7c0-2.1-0.8-3.4-2.9-5.7C80.8,17.9,79.5,16.6,78.1,15.4
				C78.1,15.3,78,15.3,78.1,15.4 M71.7,10.7c-6.4-3.8-13.8-6-21.7-6c-8,0-15.7,2.2-22,6.2C26,12,25,13,25,14.2
				c0,3.6,8.4,7.4,23.2,7.4c14.7,0,26.1-4.2,26.1-8.3C74.3,12.4,73.5,11.7,71.7,10.7"/>
		</g>
	</g>
	<g>
		<g transform="matrix(2.4760713,0,0,2.4760713,-2.9521334,-2.9521466)">
			<path class="st1" d="M304.8,28.6L304.8,28.6c-1.4,1.4-2.9,2.1-4.5,2.1c-3.3,0-5.7-2.5-5.7-5.9c0-3.4,2.4-5.9,5.7-5.9
				c1.6,0,3.1,0.7,4.4,2.1l0.1,0.1l2.1-2.6l-0.1-0.1c-1.8-2.1-3.9-3.1-6.5-3.1c-2.6,0-5,0.9-6.7,2.5c-1.9,1.7-2.9,4.1-2.9,7
				c0,2.9,1,5.3,2.9,7c1.7,1.6,4.1,2.5,6.7,2.5c2.6,0,4.7-1,6.5-3.1l0.1-0.1L304.8,28.6z"/>
			<path class="st1" d="M309,34h3.7V15.6H309V34z"/>
			<path class="st1" d="M327.3,30.1c-1,0.6-1.9,0.9-2.7,0.9c-1.2,0-1.7-0.6-1.7-2.1v-9.7h3.9v-3.4H323v-5.7l-3.7,2v3.7h-3.1v3.4h3.1
				v10.3c0,2.8,1.6,4.7,4,4.8c1.6,0,2.6-0.5,3.2-0.8l0,0l0.9-3.5L327.3,30.1L327.3,30.1z"/>
			<path class="st1" d="M330.7,34h3.7V15.6h-3.7V34z"/>
			<path class="st2" d="M336.6,12.4c-3.4-4.9-9.1-7.8-15-7.8c-5.8,0-11.5,2.9-14.9,7.8l-0.2,0.3h4.3l0-0.1c2.9-3,6.8-4.6,10.7-4.6
				c4,0,7.8,1.6,10.8,4.6l0,0.1h4.3L336.6,12.4L336.6,12.4z"/>
		</g>
	</g>
	<g>
		<g id="g38907_1_" transform="matrix(1.25,0,0,-1.25,-539.88561,154.39707)">
			<g id="XMLID_2_">
				<g>
					<path d="M735.4-10.2c1.8,0,3.3-1.5,3.3-3.3s-1.5-3.3-3.3-3.3c-1.8,0-3.3,1.5-3.3,3.3C732.2-11.7,733.6-10.2,735.4-10.2z
						 M738.3-13.5c0,1.6-1.3,2.8-2.8,2.8s-2.8-1.3-2.8-2.8c0-1.6,1.3-2.8,2.8-2.8C737-16.4,738.3-15.1,738.3-13.5z"/>
					<path d="M736.9-14.6h-0.6c0,0,0-0.4,0-0.2c0,0.8-0.2,1-0.9,1.4h-2.1v-1.2h1.2v2.4h0.9c0.8,0.5,1.5,0.3,1.5-0.5
						c0-0.6-0.5-0.8-0.9-0.9C736.6-13.7,736.9-14.1,736.9-14.6C736.8-15,736.9-14.6,736.9-14.6z M735.9-12.8c0,0.4-0.3,0.6-0.8,0.6
						h-0.6v-1.2h0.6C735.6-13.4,735.9-13.2,735.9-12.8z"/>
					<polygon points="721.9,-22.5 731.4,-37.3 721.5,-37.3 716.9,-29.2 711.1,-37.3 701.1,-37.3 712.2,-22.4 703.7,-9.8 713.8,-9.8 
						717.1,-15.7 720.8,-9.8 731,-9.8 					"/>
					<polygon points="691.9,-9.8 700,-9.8 700,-9.8 					"/>
					<path d="M696-39.6c2.8,0,5.1-2.3,5.1-5.1s-2.3-5.1-5.1-5.1c-2.8,0-5.1,2.3-5.1,5.1C690.9-41.9,693.2-39.6,696-39.6z"/>
					<path d="M682-26.4l8.5-11H680l-5.3,8.2v-8.2h-8.4v27.5h11c3.3,0,5.9-0.9,7.6-2.6c1.5-1.5,2.3-3.6,2.3-6.2
						C687.3-22.4,685.2-25.3,682-26.4z M679.6-19.3c0,0.9-0.2,1.6-0.7,2.1c-1,1-2.8,1.1-4.2,1.1v-6.4
						C678.1-22.5,679.6-21.6,679.6-19.3z"/>
					<polygon points="665.1,-9.8 665.1,-17 659.1,-17 659.1,-37.3 650.8,-37.3 650.8,-17 644.8,-17 644.8,-9.8 					"/>
					<polygon points="642.4,-9.8 642.4,-37.3 634,-37.3 634,-33.6 634,-13.6 634,-9.8 					"/>
					<path d="M637.9,2.1c2.8,0,5.1-2.3,5.1-5.1c0-2.8-2.3-5.1-5.1-5.1c-2.8,0-5.1,2.3-5.1,5.1C632.9-0.2,635.1,2.1,637.9,2.1z"/>
					<path d="M631.4-14.1l-4.3-6.9c-1.2,2-3.6,3.3-5.9,3.3c-3.4,0-5.9-2.8-5.9-6.2s2.5-6.2,5.9-6.2c2.4,0,4.7,1.3,5.9,3.3l4.3-6.9
						c-2.6-2.7-6.2-4.3-10.2-4.3c-7.8,0-14.1,6.3-14.1,14.1c0,7.8,6.3,14.1,14.1,14.1C625.2-9.7,628.9-11.4,631.4-14.1z"/>
				</g>
			</g>
		</g>
		<polygon points="334.9,166.7 334.9,201.1 324.4,201.1 324.4,196.4 324.4,171.4 324.4,166.7 		"/>
	</g>
	<g>
		<path class="st3" d="M355,55.7c0,8.6-6.7,15-15,15c-8.3,0-15-6.3-15-15c0-8.7,6.7-15,15-15C348.3,40.7,355,47,355,55.7z
			 M348.4,55.7c0-5.4-3.9-9.1-8.4-9.1c-4.5,0-8.4,3.7-8.4,9.1c0,5.3,3.9,9.1,8.4,9.1C344.5,64.7,348.4,61,348.4,55.7z"/>
		<path class="st4" d="M387.4,55.7c0,8.6-6.7,15-15,15s-15-6.3-15-15c0-8.7,6.7-15,15-15S387.4,47,387.4,55.7z M380.8,55.7
			c0-5.4-3.9-9.1-8.4-9.1s-8.4,3.7-8.4,9.1c0,5.3,3.9,9.1,8.4,9.1S380.8,61,380.8,55.7z"/>
		<path class="st5" d="M418.1,41.6v26.4c0,10.9-6.3,15.4-13.8,15.4c-7.1,0-11.3-4.8-12.9-8.7l5.6-2.4c1,2.4,3.4,5.3,7.3,5.3
			c4.8,0,7.8-3,7.8-8.7v-2.1h-0.2c-1.4,1.8-4.2,3.4-7.7,3.4c-7.3,0-13.9-6.4-13.9-14.7c0-8.4,6.7-14.9,13.9-14.9
			c3.5,0,6.2,1.6,7.7,3.3h0.2v-2.7h6.1L418.1,41.6z M412.6,55.7c0-5.3-3.5-9.1-8-9.1c-4.5,0-8.3,3.8-8.3,9.1c0,5.2,3.8,9,8.3,9
			C409.1,64.7,412.6,60.9,412.6,55.7z"/>
		<path class="st6" d="M428.9,25.7v43.8h-6.7V25.7H428.9z"/>
		<path class="st3" d="M453.6,60.6l5.1,3.4c-1.6,2.4-5.6,6.6-12.5,6.6c-8.5,0-14.8-6.6-14.8-15c0-8.9,6.4-15,14.1-15
			c7.8,0,11.6,6.2,12.8,9.5l0.7,1.7l-20,8.3c1.5,3,3.9,4.5,7.2,4.5C449.6,64.7,451.9,63.1,453.6,60.6L453.6,60.6z M437.9,55.2
			l13.4-5.5c-0.7-1.9-2.9-3.2-5.5-3.2C442.4,46.5,437.8,49.5,437.9,55.2z"/>
		<path class="st5" d="M300.8,51.3v-6.1h20.5c0.2,1.1,0.3,2.3,0.3,3.7c0,4.6-1.2,10.2-5.3,14.2c-3,3.1-6.7,5.1-11.2,5.9
			c-12.9,2.1-25.3-6.5-26.7-19.5c-1.4-13.3,9.4-24.6,22.4-24.6c6.8,0,11.6,2.7,15.2,6.1l-4.3,4.3c-1.9-1.8-4.4-3.3-7.5-4
			c-9.6-2-19,5.3-19.4,15.1c-0.4,9.3,6.8,16.9,15.9,16.9c5.8,0,9.1-2.3,11.2-4.4c1.7-1.7,2.8-4.2,3.3-7.5L300.8,51.3z"/>
	</g>
	<g>

		<g id="g4137_2_" transform="scale(1.3026316,1.3026316)">
			<g id="g4139_2_">
				<path id="path4141_2_"  class="st7" d="M416.1,108.7h4.3c0.5,0,0.9-0.4,0.9-0.9
					c0-0.5-0.4-0.9-0.9-0.7h-4.3V108.7z M416.1,113.3h4.4c0.6-0.3,1-0.8,1-1.3c0-0.6-0.4-1-1-1h-4.4V113.3z M423.5,110
					c0.6,0.6,1,1.4,1,2.3c0,1.8-1.5,3.3-3.3,3.3h-7.5v-10.7l7.4,0c1.7,0,3.1,1.4,3.1,3.1C424.3,108.8,424,109.5,423.5,110z"/>
				<path id="path4143_2_"  class="st7" d="M424.8,127.9H422l-0.8-1.5h-5.9l-0.8,1.5h-2.8l5.4-10.7
					h2.5L424.8,127.9z M418.2,120.3l-1.8,3.8h3.7L418.2,120.3z"/>
				<polygon id="polygon4145_2_" class="st7" points="411.9,130.2 414.7,130.2 418,135.1 421.3,130.2 424.1,130.2 419.2,137.2 
					419.2,141 416.8,141 416.8,137.2 				"/>
				<polygon id="polygon4147_2_" class="st7" points="436,130.2 436,132.5 429.1,132.5 429.1,134 435.3,134 435.3,136.4 
					429.1,136.4 429.1,138.7 436,138.7 436,141 426.1,141 426.1,130.2 				"/>
				<path id="path4149_2_"  class="st7" d="M443.4,136.4h-2v3.8h-2.3v-10h6.5
					c1.8,0,3.3,1.5,3.3,3.3c0,1.5-1,2.8-2.4,3.2l3.2,4.2h-3.3L443.4,136.4z M445.2,131.7h-3.8v2.3h3.8c0.5,0.2,1-0.2,1-0.8
					C446.2,132.7,445.8,132.3,445.2,131.7z"/>
				<path id="path4151_2_"  class="st7" d="M412.9,141h-2.8l-0.8-2.3h-5.9l-0.8,2.3h-2.8l5.4-10.7
					h2.5L412.9,141z M406.3,132.5l-1.8,3.8h3.7L406.3,132.5z"/>
				<path id="path4153_2_"  class="st7" d="M390.7,134h4.1c0.5,0,0.9-0.4,0.9-0.9s-0.4-0.9-0.9-0.6
					h-4.1V134z M390.4,138.7h4.5c0.6-0.4,1-0.8,1-1.4c0-0.6-0.4-1-1-0.9h-4.2v2.3H390.4z M397.4,135.4c0.6,0.6,1,1.4,1,2.3
					c0,1.8-1.5,3.3-3.3,3.3h-7.5v-10.7h7.4c1.7,0,3.1,1.4,3.1,3.1C398.2,134.1,397.9,134.8,397.4,135.4z"/>
				<polygon id="polygon4155_2_" class="st7" points="423,142.5 423,144.8 416.1,144.8 416.1,147.1 423,147.1 423,148.6 
					416.1,148.6 416.1,150.9 423,150.9 423,153.2 413.8,153.2 413.8,142.5 				"/>
				<path id="path4157_2_"  class="st7" d="M421.2,159c0-0.6-0.4-1-1-1.2h-4.1v2.3h4.1
					C420.8,160,421.2,159.6,421.2,159z M413.8,166.3v-10.7h7.2c1.8,0,3.3,1.5,3.3,3.3c0,1.4-0.9,2.6-2.1,3.1l3.2,4.3h-3.9l-2.8-3.8
					h-2.6v3.8L413.8,166.3L413.8,166.3z"/>
			</g>
			<g id="g4159_2_">
				<path id="path4161_2_"  class="st8" d="M456.1,133.1c-1.2-19.9-17.7-35.6-37.9-35.6
					s-36.7,15.8-37.9,35.6c0,0.8,0.1,1.6,0.2,2.4c0.8,6.6,3.3,12.7,7.1,17.8c6.9,9.4,18,15.5,30.6,15.5c-17.6,0-32-13.7-33.2-30.9
					c-0.1-0.8-0.1-1.6-0.1-2.4c0-0.8,0-1.6,0.1-2.4c1.2-17.3,15.6-30.9,33.2-30.9c12.6,0,23.7,6.1,30.6,15.5
					c3.8,5.1,6.3,11.2,7.1,17.8c0.1,0.8,0.2,1.5,0.2,2.3c0-0.8,0.1-1.6,0.1-2.4S456.2,133.9,456.1,133.1"/>
				<path id="path4163_2_"  class="st9" d="M380.3,137.8c1.2,19.9,17.7,35.6,37.9,35.6
					s36.7-15.8,37.9-35.6c0-0.8-0.1-1.6-0.2-2.4c-0.8-6.6-3.3-12.7-7.1-17.8c-6.9-9.4-18-15.5-30.6-15.5c17.6,0,32,13.7,33.2,30.9
					c0.1,0.8,0.1,1.6,0.1,2.4c0,0.8,0,1.6-0.1,2.4c-1.2,17.3-15.6,30.9-33.2,30.9c-12.6,0-23.7-6.1-30.6-15.5
					c-3.8-5.1-6.3-11.2-7.1-17.8c-0.1-0.8-0.2-1.6-0.2-2.3c0,0.8-0.1,1.6-0.1,2.4S380.2,137,380.3,137.8"/>
			</g>
		</g>
	</g>
	<g>
		<g transform="translate(1565.7 -1106.8)">
		</g>
	</g>
	<g transform="matrix(3.1437 0 0 3.1437 -4835.7 -1027.6)">
		<g transform="matrix(1.25 0 0 -1.25 1102.5 727.74)">
			<path class="st10" d="M512.9,299.3L512.9,299.3L512.9,299.3C513,299.3,513,299.3,512.9,299.3C513,299.4,513,299.4,512.9,299.3
				C513,299.4,513,299.4,512.9,299.3C513,299.4,513,299.4,512.9,299.3L512.9,299.3z M513,299.5C513,299.4,513,299.4,513,299.5
				C513,299.4,513,299.4,513,299.5c0.1-0.1,0.1-0.1,0.1-0.1c0,0,0,0,0,0l0.1-0.1H513l-0.1,0.1h-0.2v-0.1h0.1L513,299.5L513,299.5z
				 M512.9,299.2C513,299.2,513,299.2,512.9,299.2c0.1,0,0.1,0,0.1,0.1s0,0,0,0.1c0,0,0,0,0,0.1s0,0,0,0.1c0,0,0,0,0,0.1s0,0-0.1,0
				c0,0,0,0-0.1,0s0,0-0.1,0c0,0,0,0-0.1,0s0,0,0-0.1c0,0,0,0,0-0.1s0,0,0-0.1c0,0,0,0,0-0.1S512.9,299.2,512.9,299.2
				C512.9,299.2,512.9,299.2,512.9,299.2 M512.9,299.6C513,299.6,513,299.6,512.9,299.6c0.1,0,0.1,0,0.2-0.1c0,0,0,0,0-0.1
				c0,0,0-0.1,0-0.1s0-0.1,0-0.1c0,0,0-0.1,0-0.1c0,0,0,0-0.1,0c0,0-0.1,0-0.1,0c0,0-0.1,0-0.1,0c0,0-0.1,0-0.1,0c0,0,0,0,0,0.1
				c0,0,0,0.1,0,0.1s0,0.1,0,0.1c0,0,0,0.1,0,0.1C512.8,299.5,512.8,299.5,512.9,299.6C512.9,299.6,512.9,299.6,512.9,299.6
				 M491.7,300.4c0,0.4,0.3,0.7,0.7,0.7c0.4,0,0.7-0.3,0.7-0.7c0-0.4-0.3-0.7-0.7-0.7C492,299.6,491.7,300,491.7,300.4 M493.6,300.4
				v1h-0.6v-0.2c-0.2,0.2-0.4,0.3-0.7,0.3c-0.6,0-1.1-0.5-1.1-1.2c0-0.7,0.5-1.2,1.1-1.2c0.3,0,0.6,0.1,0.7,0.3v-0.3h0.6V300.4z
				 M510.3,300.4c0,0.4,0.3,0.7,0.7,0.7c0.4,0,0.7-0.3,0.7-0.7c0-0.4-0.3-0.7-0.7-0.7C510.5,299.6,510.3,300,510.3,300.4
				 M512.2,300.4v2h-0.6v-1.2c-0.2,0.2-0.4,0.3-0.8,0.3c-0.6,0-1.1-0.5-1.1-1.2c0-0.7,0.5-1.2,1.1-1.2c0.3,0,0.6,0.1,0.8,0.3v-0.3
				h0.6V300.4z M499.7,301.1c0.3,0,0.5-0.2,0.6-0.6h-1.2C499.1,300.9,499.3,301.1,499.7,301.1 M499.7,301.6c-0.7,0-1.1-0.5-1.1-1.2
				c0-0.7,0.5-1.2,1.2-1.2c0.3,0,0.7,0.1,0.9,0.3l-0.2,0.4c-0.2-0.2-0.4-0.2-0.7-0.2c-0.3,0-0.6,0.1-0.7,0.6h1.7c0,0.1,0,0.1,0,0.2
				C500.8,301.1,500.3,301.6,499.7,301.6 M505.7,300.4c0,0.4,0.3,0.7,0.7,0.7c0.4,0,0.7-0.3,0.7-0.7c0-0.4-0.3-0.7-0.7-0.7
				C505.9,299.6,505.7,300,505.7,300.4 M507.5,300.4v1h-0.6v-0.2c-0.1,0.2-0.3,0.3-0.6,0.3c-0.6,0-1.1-0.5-1.1-1.2
				c0-0.7,0.5-1.2,1.1-1.2c0.3,0,0.6,0.1,0.6,0.3v-0.3h0.6V300.4z M502.9,300.4c0-0.7,0.5-1.2,1.2-1.2c0.3,0,0.6,0.1,0.8,0.3
				l-0.2,0.4c-0.2-0.1-0.4-0.2-0.6-0.2c-0.4,0-0.7,0.3-0.7,0.7c0,0.4,0.3,0.7,0.7,0.7c0.2,0,0.4-0.1,0.6-0.2l0.2,0.4
				c-0.2,0.2-0.5,0.3-0.8,0.3C503.4,301.6,502.9,301.1,502.9,300.4 M509.2,301.6c-0.3,0-0.5-0.1-0.6-0.3v0.2h-0.4v-2.2h0.6v1.3
				c0,0.4,0.2,0.6,0.5,0.6c0.1,0,0.2,0,0.3-0.1l0.2,0.5c-0.1,0-0.3,0.1-0.4,0.1 M496,301.3c-0.2,0.2-0.6,0.2-0.9,0.2
				c-0.6,0-0.9-0.3-0.9-0.7c0-0.4,0.3-0.6,0.8-0.7l0.2,0c0.3,0,0.4-0.1,0.4-0.2c0-0.2-0.2-0.3-0.5-0.3c-0.3,0-0.6,0.1-0.8,0.2
				l-0.2-0.4c0.3-0.2,0.6-0.3,1-0.3c0.7,0,1,0.3,1,0.7c0,0.4-0.3,0.6-0.8,0.7l-0.2,0c-0.2,0-0.4,0.1-0.4,0.2c0,0.2,0.2,0.3,0.4,0.3
				c0.3,0,0.6-0.1,0.7-0.2L496,301.3z M502.4,301.6c-0.3,0-0.5-0.1-0.6-0.3v0.2h-0.6v-2.2h0.6v1.3c0,0.4,0.2,0.6,0.5,0.6
				c0.1,0,0.2,0,0.3-0.1l0.2,0.5C502.6,301.5,502.5,301.6,502.4,301.6 M498.2,301.6h-0.8v0.7h-0.6v-0.7h-0.4v-0.4h0.4V300
				c0-0.5,0.2-0.8,0.8-0.8c0.2,0,0.5,0.1,0.6,0.2l-0.1,0.4c-0.1-0.1-0.3-0.1-0.4-0.1c-0.2,0-0.3,0.4-0.3,0.4v1.1h0.8V301.6z
				 M490.7,299.2v1.4c0,0.5-0.3,0.9-0.9,0.9c-0.3,0-0.6-0.1-0.8-0.4c-0.2,0.3-0.4,0.4-0.7,0.4c-0.2,0-0.5-0.1-0.7-0.3v0.2h-0.6v-2.2
				h0.6v1.3c0,0.4,0.2,0.6,0.6,0.6c0.3,0,0.5-0.2,0.5-0.6v-1.3h0.4v1.3c0,0.4,0.2,0.6,0.6,0.6c0.4,0,0.5-0.2,0.5-0.6v-1.3H490.7z"/>
		</g>
		<g transform="matrix(1.25 0 0 -1.25 1103.2 710.77)">
			<path class="st11" d="M512.6,293.2v0.3h-0.1l-0.1-0.2l-0.1,0.2h-0.2v-0.3h0.1v0.2l0.1-0.4h0.1l0.1,0.4V293.2L512.6,293.2z
				 M512.2,293.2v0.4l0,0v-0.1h-0.3v0.1h0.1v-0.4H512.2z"/>
		</g>
		<path class="st12" d="M1731.7,345.9h-9.4v-16.8h9.4V345.9z"/>
		<g transform="matrix(1.25 0 0 -1.25 1064.5 698.59)">
			<path class="st13" d="M526.7,288.8c0,2.7,1.3,5.2,3.3,6.7c-1.5,1.1-3.3,1.8-5.3,1.8c-4.7,0-8.6-3.8-8.6-8.6
				c0-4.7,3.8-8.6,8.6-8.6c2,0,3.8,0.7,5.3,1.8C528,283.6,526.7,286.1,526.7,288.8"/>
		</g>
		<g transform="matrix(1.25 0 0 -1.25 1103.8 698.59)">
			<path class="st14" d="M512.4,288.8c0-4.7-3.8-8.6-8.6-8.6c-2,0-3.8,0.7-5.3,1.8c2,1.6,3.3,4,3.3,6.7c0,2.7-1.3,5.2-3.3,6.7
				c1.5,1.1,3.3,1.8,5.3,1.8C508.6,297.4,512.4,293.5,512.4,288.8"/>
		</g>
	</g>
	<g>
	</g>
	<g>
		<path class="st15" d="M283.3,285.3c3.9-1.9,8.1-5.8,9.5-8.4c3.8,1.8,38.4,1.5,42.4,0c2.4,3.5,5,5.5,8.7,6.7
			c-0.3,3.4-0.2,4.6,0.9,7.3h-9.3l-4-4.3h-34l-4.4,3.7v18l4.4,4.4l5.6,0.2c0-6.9,0.1-8.2-4.8-9.5c1.6-3.4,2-3.8,2.4-8
			c4.2,1.4,47.7,0.7,49.6-0.5c-0.3,4.4,2.1,12.7,3.7,15.8h-9.5c-0.5-3.4-2.6-6-5.9-6.6h-26v8.6c0,0,20.1,0.5,22.7-0.4
			c1.3,3.4,6.1,8.5,9.5,9.8c-1.1,7-0.9,19,0,26.3c-3.7,1.9-7.5,5.7-9.5,9.5c-4.7-1.3-22.7-0.6-22.7-0.6v5.4c0.9,3.7,2.9,4.6,6.4,4.9
			c0,0-2.8,5.2-2.9,8.3h-16.2c-0.1-3-2.9-8.3-2.9-8.3c3.1-0.1,5.7-2,6.1-4.9v-5.1c0,0-5.7-0.2-10,0.6c-1.3-2.9-6-8.2-9.5-9.5
			c0.8-2.1,0.4-15.3-0.7-18h10.2v13.4l4,4.7h6V321c0,0-5.3-0.3-10,0.1c-1.4-2.6-5.4-6.9-9.5-9c1.3-4.9,1.4-22.3,0-26.9 M312.5,321.2
			v10c0,0,12.7,0.8,16.5-1.6c-0.7,2.2-0.5,9.4,0,10.6c-4.9-2.5-16.5-1.5-16.5-1.5v10.1h18.8l4-4.7v-17.2l-4.6-5.4
			C327.9,321.2,318.1,321.2,312.5,321.2L312.5,321.2z"/>
	</g>
	<g>
		<g>
			<path class="st16" d="M563.4,348.3c-1.8-2-1.8-4-1.8-4v-46.9h-17.8v37.5c-0.3,3.6-3.7,4.5-5.7,4.4c-2.8-0.1-4.4-1.6-4.3-4.3
				v-37.6h-17.4h0h-12.3c0,0-18.5,1.4-21.5,9.3l-1.8-7c-0.4-1.4-3.4-2.4-3.4-2.4h-2.3l-23.3,0.1h-5.5c-0.4,0-0.6,0.1-0.4,0.5
				c0,0,0.8,0.8,2.4,2.5c2.1,2.4,1.3,5.6,1.3,5.6l-11.4,45.3h16.6l2.4-10h16l2.5,10h21.8c0,0,16.2-0.9,19.8-6.5
				c2.7,5.1,8.5,7.5,18.6,6.6c3.6-0.3,7-2,8.5-4.6l0.7,2.2c0.6,1.3,1.8,2.3,3.5,2.4h16.7c0.4-0.1,0.6-0.2,0.4-0.5
				C565.8,350.9,564.9,349.9,563.4,348.3L563.4,348.3z M459.8,331.6l5.5-22.2l5.5,22.2H459.8z M563.8,300.6h0.4v-2.9h1v-0.4h-2.5
				v0.4h1.1V300.6z M568.6,297.3l-1,2.7l-1-2.7h-0.8v3.3h0.4v-2.8h0l1.1,2.8h0.5l1.1-2.8h0v2.8h0.5v-3.3H568.6L568.6,297.3z"/>
			<path class="st17" d="M482,310.4l0-0.1c0.1-0.5,0.1-1,0.3-1.4l0,0l-3-1.8c-0.1-0.1-0.3-0.1-0.5,0c-0.1,0.1-0.1,0.1-0.1,0.2
				c0,0.1,0.1,0.2,0.1,0.2L482,310.4L482,310.4z M482,315.3l0-0.1c-0.1-0.7-0.1-1.4-0.1-2.1l-5.6-2.2c-0.2-0.1-0.4,0-0.4,0.1
				c0,0.1-0.1,0.1,0,0.2c0,0.1,0.1,0.2,0.2,0.2L482,315.3L482,315.3z M473.8,315.6l9.4,4.1l-0.1-0.1c-0.4-0.9-0.7-1.8-0.9-2.7l0,0
				l-8.2-1.8c-0.2,0-0.3,0-0.4,0.2c0,0.1,0,0.2,0,0.2C473.6,315.5,473.7,315.6,473.8,315.6L473.8,315.6z M497.4,329.2
				c-5.2-1.8-11-3.8-13.9-8.9l0,0l-10.9-0.7c-0.2,0-0.3,0.1-0.4,0.3c0,0.1,0,0.2,0,0.2c0.1,0.1,0.1,0.1,0.2,0.1l10.9,2.8
				c0,0,0.1,0,0.1,0c0,0,0,0,0,0.1c0,0.1-0.1,0.1-0.1,0.1l-11.3,1.1c-0.2,0-0.3,0.1-0.3,0.3c0,0.1,0,0.2,0.1,0.2
				c0.1,0.1,0.1,0.1,0.2,0.1l11.3,1.1c0.1,0,0.1,0,0.1,0.1c0,0,0,0.1,0,0.1c0,0,0,0-0.1,0l-10.9,2.8c-0.1,0-0.1,0.1-0.2,0.1
				c0,0.1-0.1,0.1,0,0.2c0,0.2,0.2,0.3,0.4,0.2l11.3-0.7c0.1,0,0.1,0,0.1,0.1c0,0,0,0.1,0,0.1c0,0,0,0-0.1,0l-10.2,4.4
				c-0.1,0-0.1,0.1-0.2,0.2c0,0.1,0,0.1,0,0.2c0.1,0.1,0.3,0.2,0.4,0.2l11-2.5c0.1,0,0.1,0,0.2,0.1c0,0,0,0,0,0.1c0,0,0,0.1-0.1,0.1
				l-9.1,6c-0.1,0-0.1,0.1-0.2,0.2c0,0.1,0,0.2,0,0.2c0.1,0.1,0.3,0.2,0.5,0.1l10.3-4.1c0,0,0.1,0,0.2,0c0,0,0,0.1,0,0.1
				c0,0,0,0,0,0.1l-7.9,7.3c-0.1,0.1-0.1,0.1-0.1,0.2c0,0.1,0,0.2,0.1,0.2c0.1,0.1,0.3,0.1,0.5,0l9.4-5.7c0,0,0.1,0,0.2,0
				c0.1,0,0,0.1,0,0.1c0,0,0,0.1,0,0.1l-6.3,8.4c0,0.1-0.1,0.1-0.1,0.2c0,0.1,0.1,0.2,0.1,0.2c0.1,0.1,0.3,0.1,0.5,0l8.1-7
				c0,0,0.1-0.1,0.2,0c0,0,0.1,0.1,0.1,0.1c0,0,0,0,0,0.1l-4.6,9.2c0,0.1,0,0.1,0,0.2c0,0.1,0.1,0.2,0.2,0.2c0.2,0.1,0.4,0,0.5-0.1
				c0,0,6.7-8.3,6.7-8.2c1.3,0.6,2.7,1,3.7,1.1c3.2,0.3,6.1-0.4,7.7-1.9c0.8-0.8,1.3-1.7,1.3-2.7
				C506.7,332.4,502.4,330.9,497.4,329.2L497.4,329.2z M519,341.6l0,0.1c-0.1,0.5-0.3,0.9-0.5,1.4l0,0l2.6,2.2
				c0.1,0.1,0.3,0.1,0.5,0c0.1-0.1,0.1-0.1,0.1-0.2c0-0.1,0-0.2-0.1-0.2L519,341.6L519,341.6z M519.9,336.6l0,0.1
				c0,0.7-0.1,1.4-0.2,2.1l0,0l5.1,3.1c0.1,0.1,0.3,0.1,0.5-0.1c0.1-0.1,0.1-0.1,0.1-0.2c0-0.1,0-0.1-0.1-0.2L519.9,336.6
				L519.9,336.6z M519.7,332.2l0,0.1c0.1,0.7,0.2,1.5,0.2,2.3l0,0.4l7.9,3.2c0.2,0.1,0.4,0,0.4-0.1c0-0.1,0.1-0.1,0-0.2
				c0-0.1-0.1-0.1-0.1-0.2L519.7,332.2L519.7,332.2z M532.2,324.3c-0.1-0.1-0.1-0.1-0.2-0.1l-11.3-1.1c-0.1,0-0.1,0-0.1-0.1
				c0,0,0-0.1,0-0.1c0,0,0,0,0.1,0l10.9-2.8c0.1,0,0.2-0.1,0.2-0.1c0-0.1,0.1-0.1,0-0.2c0-0.2-0.2-0.3-0.4-0.2l-11.3,0.7
				c-0.1,0-0.1,0-0.1-0.1c0,0,0-0.1,0-0.1c0,0,0,0,0.1,0l10.2-4.5c0.1,0,0.1-0.1,0.2-0.2c0-0.1,0-0.2,0-0.2
				c-0.1-0.2-0.3-0.2-0.4-0.2l-11,2.5c-0.1,0-0.1,0-0.2,0c0,0,0-0.1,0-0.1c0,0,0,0,0.1-0.1l9.2-6c0.1,0,0.1-0.1,0.2-0.2
				c0-0.1,0-0.2,0-0.2c-0.1-0.1-0.3-0.2-0.4-0.1l-10.4,4.1c0,0-0.1,0-0.1,0c0,0,0-0.1,0-0.1c0,0,0,0,0-0.1l7.9-7.3
				c0.1-0.1,0.1-0.1,0.1-0.2c0-0.1,0-0.2-0.1-0.2c-0.1-0.1-0.3-0.1-0.4-0.1l-9.4,5.7c0,0-0.1,0-0.2,0c0,0,0,0,0-0.1c0,0,0-0.1,0-0.1
				l6.4-8.4c0.1-0.1,0.1-0.1,0.1-0.2c0-0.1,0-0.2-0.1-0.2c-0.1-0.1-0.4-0.1-0.5,0l-8.2,7.1c0,0-0.1,0.1-0.2,0c0,0,0,0,0-0.1
				c0,0,0,0,0-0.1l4.6-9.3c0-0.1,0.1-0.1,0-0.2c0-0.1-0.1-0.2-0.2-0.2c-0.2-0.1-0.4,0-0.4,0.1l-6.8,8.4c-1.9-0.9-5-1.5-6.5-1.5
				c0,0-0.1,0-0.1,0c-3-0.1-5.2,0.5-6.4,1.7c-0.7,0.7-1.1,1.6-1.1,2.6c0,1.5,0.8,2.7,2.6,3.8c1.6,1,3.8,1.8,6.1,2.7
				c3,1.1,6.5,2.4,9.3,4.4c3.2,2.2,5.1,5,5.8,8.4l0,0l10.4,2.3c0.2,0,0.3,0,0.4-0.2c0-0.1,0-0.2,0-0.2c0-0.1-0.1-0.1-0.2-0.2
				l-10.2-4.5c0,0,0,0-0.1,0c0,0,0-0.1,0-0.1c0-0.1,0.1-0.1,0.1-0.1l11.3,0.7c0.2,0,0.3-0.1,0.4-0.3c0-0.1,0-0.2,0-0.2
				c-0.1-0.1-0.1-0.1-0.2-0.1l-10.9-2.8c0,0-0.1,0-0.1,0c0,0,0,0,0-0.1c0-0.1,0.1-0.1,0.1-0.1l11.3-1.1c0.1,0,0.2,0,0.2-0.1
				s0.1-0.1,0.1-0.2C532.3,324.5,532.3,324.4,532.2,324.3L532.2,324.3z"/>
		</g>
	</g>
	<g>
		<g>
			<g>
				<path class="st18" d="M96.8,323.8c-5.2,0-5.6-3.9-5.6-5.1c0-1.4,0.4-3.9,3.7-5.1c3.4-1.3,4.1-1.4,6.5-2.1v-0.6
					c0-1.1,0-1.4-0.2-2.1c-0.5-1.4-1.7-2.2-3.5-2.2c-2.6,0-3.7,2-3.7,2l-0.2,0.4l-1-0.6L93,308c0.5-1.5,2.3-4,6.5-4
					c2.7,0,4.4,0.8,5.5,2.4c0.8,1.3,0.9,3.1,0.9,5c0,1.6,0,3.5-0.1,5c0,1,0,1.9,0,2.4c0,1.4,0.2,2.4,1.3,2.4c0.3,0,0.5-0.1,0.6-0.2
					l0.3-0.3l0.6,0.7l-0.2,0.3c-1,1.2-2,2.1-3.8,2.1c-1.5,0-2.6-0.7-2.9-1.9C100.8,322.7,99.3,323.8,96.8,323.8z M101.4,313.8
					c-2.5,0.8-3.4,1.2-4.2,1.6c-1.1,0.6-1.7,1.7-1.7,3c0,1,0.4,2.8,2.9,2.8c0.8,0,2-0.2,3-0.9V313.8z"/>
			</g>
			<g>
				<g>
					<path class="st18" d="M65.2,323.8c-2.5,0-4.4-0.3-6.3-0.9l-0.3-0.1v-1.4c0-1.9,0-2.6-0.1-3.2l-0.1-1l1.1,0l0,0.4
						c0,0.9,0.3,1.7,0.9,2.3c0.8,0.9,2.7,1.5,4.4,1.5c3.6,0,5.3-1.4,5.3-4.3c0-2.5-1.6-3.6-3.7-5.1l-0.3-0.2l-2.3-1.5
						c-3.2-2.1-4.8-3.8-4.8-7.2c0-1.7,0.6-7,8.6-7c3.3,0,5.8,0.4,5.9,0.4l0.3,0.1l0,0.3c0,0,0,1.1,0,2.2c0,0.9,0,1.7,0,2.5l0,0.6h-1
						l0-0.4c-0.1-1-0.4-1.8-0.9-2.3c-0.8-0.8-2.5-1.1-4.3-1.1c-4.2,0-4.7,2.2-4.7,3.8c0,2.3,1.2,3,3.7,4.7l2.9,1.9
						c2.5,1.6,4.8,3.2,4.8,7.3C74.4,323,67.9,323.8,65.2,323.8z"/>
				</g>
				<g>
					<path class="st18" d="M84.2,323.9c-3,0-4.6-1.1-5.3-3.4c-0.3-0.9-0.3-2.8-0.3-3.9c0-3.1,0-5.5,0.1-8.4l0-1.3h-2.5v-0.8l0.2-0.1
						c1.2-0.5,1.6-0.8,2.1-1.2c1.8-1.4,3.1-3.8,3.1-3.9l0.4-0.7h0.8v4.3h6.5v2.4h-6.5v10c0,3,0.6,4.7,3.4,4.7c1.3,0,2.3-0.5,2.3-0.5
						l0.4-0.2l0.3,0.8l-0.2,0.2C89.1,322,87.6,323.9,84.2,323.9z"/>
				</g>
				<g>
					<path class="st18" d="M110.2,323.7v-0.9l0.4,0c0.3,0,1.1-0.2,1.7-0.8c0.6-0.7,0.6-2.3,0.6-5.6v-5.5c0-2.4,0-3.4-0.4-3.9
						c-0.4-0.6-1.3-0.6-1.7-0.7c-0.1,0-0.1,0-0.2,0l-0.4,0v-1.1l0.4,0c0.1,0,0.2,0,0.3,0c0.6,0,2-0.1,3.5-0.4c1.1-0.2,1.8-0.6,2-0.7
						l0.2-0.1l0.4,0.2v1.5c1-0.7,2.9-1.8,5.5-1.8c3.4,0,5.7,1.6,6.3,4.5c0.2,0.7,0.3,2.5,0.3,3.4v5.6c0,3.2,0.1,4,0.7,4.6
						c0.3,0.3,0.9,0.5,1.5,0.5l0.4,0v0.9l-0.9,0c-1.4-0.1-2.6-0.1-3.8-0.1c-1.4,0-2.6,0-4.3,0.2l-0.4,0v-0.9l0.3,0
						c0.7-0.1,1.3-0.3,1.6-0.7c0.6-0.6,0.7-2.1,0.7-3.4c0-0.2,0-0.4,0-0.7c0-0.7,0-2.2,0-3.3c0-1.4,0-2.9-0.2-4.4
						c-0.3-2.5-1.6-3.6-4.1-3.6c-1.7,0-2.8,0.4-3.6,0.8v10c0,3.2,0.1,4,0.7,4.6c0.3,0.3,0.9,0.5,1.5,0.5l0.4,0v0.9l-1-0.1
						c-1.3-0.1-2.5-0.1-3.7-0.1c-1.4,0-2.7,0-4.4,0.2L110.2,323.7z"/>
				</g>
				<g>
					<path class="st18" d="M134.1,323.7v-0.9l0.4,0c0.3,0,1.1-0.2,1.7-0.8c0.6-0.7,0.6-2.3,0.6-5.5v-9.5h-2.5v-1.1l0.2-0.1
						c1.1-0.4,1.7-0.8,2.2-1.2c0-1.7,0.1-3.9,0.3-5.1c0.8-3.9,3.3-6,7.7-6c1.9,0,3.6,0.6,4.7,1.5l0.1,0.1l0.1,0.4l-1.9,2.6l-0.5,0
						l-0.1-0.2c-0.7-1.6-1.8-2.3-3.2-2.3c-0.6,0-1.4,0.2-1.9,0.7c-0.8,0.8-1,2.1-1,4.5v3.7h4.3v2.4H141v10.6c0,2.5,0.1,3.8,0.4,4.2
						c0.5,0.8,2.2,0.9,2.6,0.9h0.4v1l-0.4,0c-2.1-0.1-3.7-0.2-4.8-0.2c-1.4,0-3,0-4.7,0.2L134.1,323.7z"/>
				</g>
				<g>
					<path class="st18" d="M156.1,324c-5.8,0-9.3-3.6-9.3-9.7c0-4.7,2.5-10.3,9.7-10.3c5.8,0,9.3,3.6,9.3,9.7
						C165.8,318.5,163.2,324,156.1,324z M156.3,306.2c-1.1,0-2,0.3-2.7,0.9c-1.5,1.3-2.3,3.6-2.3,7c0,1.3,0.2,7.7,4.9,7.7
						c1.1,0,2-0.3,2.7-0.9c1.5-1.3,2.3-3.6,2.3-7C161.2,312.7,161,306.2,156.3,306.2z"/>
				</g>
				<g>
					<path class="st18" d="M167.6,323.7v-1l0.4,0c0.3,0,1.1-0.1,1.7-0.8c0.6-0.7,0.6-2.2,0.6-5.5v-5.5c0-2.4,0-3.4-0.4-3.9
						c-0.4-0.6-1.3-0.6-1.7-0.7c-0.1,0-0.1,0-0.2,0l-0.4,0v-1.2l0.4,0c0.1,0,0.2,0,0.3,0c0.6,0,2-0.1,3.5-0.4
						c0.9-0.2,1.7-0.4,2.1-0.5l0.2-0.1l0.3,0.2v1.7c0.9-0.9,2.4-1.8,4.4-1.8c1.3,0,2.4,0.4,3.2,1.1l0.1,0.1v0.6l-1.6,3h-0.8
						l-0.1-0.2c-0.4-0.7-1.3-1.5-3.1-1.5c-0.8,0-1.5,0.2-2.1,0.6v9.6c0,2.5,0.1,3.7,0.4,4.2c0.5,0.8,2.2,0.9,2.6,0.9h0.4v1.1l-0.4,0
						c-2.1-0.1-3.7-0.2-4.8-0.2c-1.4,0-3,0-4.7,0.2L167.6,323.7z"/>
				</g>
				<g>
					<path class="st18" d="M197.7,323.9l-0.5-0.2v-1.6c-0.9,0.7-2.8,1.8-5.3,1.8c-5.3,0-8.6-3.6-8.6-9.3c0-1.9,0.4-3.7,1-5.2
						c1.6-3.5,4.9-5.5,9.1-5.5c1.5,0,2.9,0.2,3.7,0.4v-4.1c0-2.4,0-3.7-0.4-4.2c-0.4-0.6-1.2-0.6-1.7-0.7c-0.1,0-0.1,0-0.2,0l-0.4,0
						l0.1-0.9h0.4c0.1,0,2.3-0.2,4.1-0.5c0.8-0.1,1.5-0.3,1.9-0.4l0.2-0.1l0.3,0.2l0,0.2c-0.1,1.6-0.1,4.9-0.1,7.5V317
						c0,2.3,0,3.8,0.4,4.2c0.4,0.6,1.2,0.7,1.7,0.7c0.1,0,0.1,0,0.2,0l0.4,0v1h-0.4c-0.4,0-2.1,0.1-3.7,0.4c-0.9,0.2-1.6,0.3-2,0.4
						L197.7,323.9z M193.3,306.3c-3.7,0-5.5,2.6-5.5,7.8c0,2.1,0.6,7.1,6.2,7.1h0.2c0.7,0,1.9-0.1,3-0.8v-12.8
						C196.8,307.3,195.6,306.3,193.3,306.3z"/>
				</g>
			</g>
		</g>
		<g>
			<g>
				<path class="st10" d="M60.5,332h3.1l2.9,7.8l1,3h0.1l1-3l2.8-7.8h3.1v15.9h-2.7v-7.3c0-1.5,0.2-3.6,0.4-5.1h-0.1l-1.3,3.6
					l-2.8,7.2h-1.3l-2.8-7.2l-1.3-3.6h-0.1c0.1,1.5,0.4,3.6,0.4,5.1v7.3h-2.6V332z"/>
				<path class="st10" d="M84.7,332h9.6v2.4h-6.8v4.1h5.7v2.4h-5.7v4.7h7v2.4h-9.8V332z"/>
				<path class="st10" d="M103.9,332h4.3c4.9,0,7.7,2.6,7.7,7.9c0,5.3-2.9,8-7.6,8h-4.4V332z M108,345.6c3.2,0,5-1.8,5-5.7
					c0-3.9-1.8-5.6-5-5.6h-1.2v11.4H108z"/>
				<path class="st10" d="M125.3,332h2.8v15.9h-2.8V332z"/>
				<path class="st10" d="M144.8,331.7c1.9,0,3.5,0.9,4.5,2l-1.6,1.8c-0.8-0.8-1.7-1.3-2.9-1.3c-2.6,0-4.5,2.2-4.5,5.8
					c0,3.6,1.7,5.8,4.4,5.8c1.4,0,2.4-0.6,3.3-1.6l1.6,1.7c-1.3,1.5-3,2.3-5,2.3c-4.1,0-7.2-2.9-7.2-8.2
					C137.4,334.8,140.7,331.7,144.8,331.7z"/>
				<path class="st10" d="M158.4,332h2.8v15.9h-2.8V332z"/>
				<path class="st10" d="M171.3,332h2.9l5,9l1.6,3.4h0.1c-0.1-1.6-0.4-3.7-0.4-5.4V332h2.7v15.9h-2.9l-5-9l-1.6-3.4h-0.1
					c0.1,1.7,0.4,3.6,0.4,5.4v7h-2.7V332z"/>
				<path class="st10" d="M193.4,332h9.6v2.4h-6.8v4.1h5.7v2.4h-5.7v4.7h7v2.4h-9.8V332z"/>
			</g>
		</g>
		<g>
			<path class="st18" d="M32.8,305l0.4,0.2l1,0.3l0-1.6l-1.9-1.1l0,1.1C32.6,304.3,32.9,304.7,32.8,305z"/>
			<path class="st18" d="M35.4,330.8c0-0.3-0.5-0.7-1.3-1.1c0,0.6,0,1.2,0,1.9C35.2,331.2,35.4,330.9,35.4,330.8z"/>
			<path class="st18" d="M30.8,325.8c0.1,0.5,0.8,1,1.9,1.5c0-1.3-0.1-2.5-0.2-3.5C31.2,324.7,30.7,325.4,30.8,325.8z"/>
			<path class="st18" d="M33.8,333.9c0-0.3,0-0.6,0-0.8l0,0v-1.4l0,0c0-0.7,0-1.5,0-2.2c-0.2-0.1-0.5-0.2-0.7-0.3
				c0,1.2,0.1,2.6,0.1,4.1C33.2,333.6,33.6,333.8,33.8,333.9z"/>
			<path class="st18" d="M30,305c-0.7-0.2-0.8-0.6-0.8-0.8c0-0.1,0-0.2-0.2-0.2c0,0-0.1,0-0.2,0c-0.3,0-1,0.1-1.2,0.7
				c-0.2,0.6-0.1,2.1,3.5,5.3c0.3,0.3,0.5,0.5,0.8,0.7l0-5.3C31.5,305.4,30.9,305.3,30,305z"/>
			<path class="st18" d="M30.2,304.6c0.1,0,0.2,0,0.2-0.1c0.1-0.1,0-0.3-0.2-0.3c-0.1-0.1-0.3,0-0.4,0.1c0,0,0,0.1,0,0.2
				c0,0.1,0.1,0.1,0.2,0.2C30.1,304.6,30.1,304.6,30.2,304.6z"/>
			<path class="st18" d="M30.7,303.6c0.1,0,0.1,0,0.1-0.1c0,0,0.1-0.1,0-0.1c0-0.1,0-0.2-0.1-0.2c-0.1-0.1-0.3-0.1-0.4,0
				c0,0-0.1,0.1-0.1,0.1c0,0.1,0,0.2,0.1,0.2C30.6,303.5,30.6,303.6,30.7,303.6z"/>
			<path class="st18" d="M33.8,336.4v-0.7c0-0.5-0.2-0.6-0.6-0.7c0,0.5,0,1,0,1.5l0,0.1c0.1,0.2,0.2,0.2,0.3,0.2
				c0.1,0,0.2,0,0.3-0.2C33.8,336.4,33.8,336.4,33.8,336.4L33.8,336.4z"/>
			<path class="st18" d="M34.2,321c1.3-0.6,2.1-1.3,2.2-2c0.2-1-0.8-2.2-2.1-3.4C34.3,317,34.2,318.8,34.2,321z"/>
			<path class="st18" d="M43.5,296.3H23.2V347v2.6c1.5-0.8,2.9-1.7,4.2-2.6C51.9,330,45.5,300.8,43.5,296.3z M38.3,319.2
				c-0.2,1.5-1.8,2.6-4.2,3.8c0,1.5,0,3.1,0,4.9c0.1,0.1,0.3,0.1,0.4,0.2c2.2,0.9,2.6,1.9,2.5,2.6c-0.1,1.2-1.5,2-2.9,2.3
				c0,0.4,0,0.7,0,1.1c0.4,0.3,0.6,0.7,0.6,1.2c0,0.4-0.2,0.7-0.6,0.9c0,0.1,0,0.2,0,0.3c-0.1,0.4-0.3,0.6-0.7,0.6
				c-0.3,0-0.6-0.2-0.7-0.5c-0.1,0-0.2,0-0.3,0.1c-0.3,0.1-0.4,0.2-0.5,0.2c-0.2,0-0.2-0.1-0.2-0.1c-0.1-0.2,0.1-0.3,0.2-0.5
				c0.3-0.3,0.4-0.4,0.9-0.6c0-0.3,0-0.5,0-0.8c-0.1,0-0.3-0.1-0.4-0.2c-0.8-0.5-1.1-1-1-1.5c0.1-0.7,1-1.1,1.3-1.2c0-1,0-2-0.1-2.9
				c-0.5-0.2-0.9-0.4-1.4-0.5c-2-0.8-2.4-1.9-2.4-2.7c0.1-1.8,2-3.5,3.4-4c-0.4-4.9-1-5.9-1.6-6.2l-0.1-0.1l0.7-1.5l0.7,0.5l0-1
				c-0.4-0.4-0.8-0.8-1.2-1.2c-0.5-0.5-2.8-3-3.1-3.3c-0.5-0.6-1.1-1.5-1.4-2.4c-0.4-1.1-0.3-2.3,0.2-3c0.6-0.8,1.6-1.1,2.9-0.8
				c0.3,0.1,0.4,0.1,0.6,0c0.1,0,0.3-0.1,0.4-0.1c0.3,0,0.5,0.1,0.8,0.3c0.1,0.1,0.4,0.3,0.6,0.6l0-1.3l2.6,1.6l0,2.2
				c0.3-0.4,0.8-0.9,1.3-1l0.2,0l0.4,2.4l-0.1,0.1c-1,0.8-1.6,1.9-1.9,5.8C37.3,315.9,38.6,317.7,38.3,319.2z"/>
			<path class="st18" d="M36,307.1l-0.3-1.8c-0.5,0.2-1,0.9-1.2,1.3l-0.4-0.1l0-0.9l-0.4,0.1l0,0.6l-0.2,0.1l-0.6-0.9l-0.4-0.2
				c-0.1,0.1-0.2,0.1-0.3,0.1l0,5.6c0.6,0.6,1.2,1.2,1.8,1.7C34.5,309.1,35.1,308,36,307.1z"/>
			<path class="st18" d="M32.3,313.7l0,1.4l-0.9-0.6l-0.3,0.8c0.7,0.5,1.5,1.6,1.9,12.1c0.2,0.1,0.5,0.2,0.8,0.3
				c0-5.7,0-9.7,0.2-12.6c-0.4-0.3-0.7-0.7-1.1-1C32.7,314,32.5,313.9,32.3,313.7z"/>
			<path class="st18" d="M0.7,319.1h21.9v-22.8H2.2C1.2,298.7-1.1,308.2,0.7,319.1z M4,311.1c-0.2,0-0.4,0-0.6-0.3
				c-0.2-0.3-0.4-0.9-0.1-1.1c0.2-0.2,0.8,0.1,1,0.4c0.2,0.3,0.1,0.5,0,0.7c0.2,0.3,0.4,0.6,0.6,0.9c-0.1-0.9,0.1-1.6,0.3-2.1
				c0.8,1.1,0.6,2,0.2,2.6c0.3,0.4,0.6,0.7,0.9,1c-0.1-0.6,0-1.5,0.2-2c0.7,1,0.8,2,0.5,2.7c0.3,0.3,0.6,0.5,0.9,0.7
				c-0.2-0.6-0.2-1.5-0.1-2c0.8,0.8,1.1,1.8,0.9,2.5c0.3,0.2,0.7,0.3,1,0.4c-0.2-0.3-0.3-0.9-0.3-1.3c0.6,0.4,0.8,0.8,0.7,1.3
				c0.1,0,0.4,0.1,0.4,0.1l0-1.4c-0.6-0.2-1.5-0.5-1.8-1.7c0.6,0.1,1.3,0.3,1.8,0.7v-0.7c-1.2-0.1-2.4-1-3-2.7
				c1.1,0.2,2.1,0.7,3,1.3v-0.6c-1.1-0.1-2.1-1.1-2.5-2.5c0.9,0.2,1.7,0.6,2.5,1.1v-0.8c-1-0.1-2-1-2.5-2.5c0.9,0.2,1.7,0.5,2.5,1.1
				v-0.9c-1-0.1-2-0.6-2.5-2.2c0.9,0.2,1.7,0.6,2.5,1.2v-1c-0.8-0.1-1.6-0.6-2-2.2c0.7,0.2,1.3,0.5,2,1v-1c-0.6-0.1-1.2-0.4-1.5-1.6
				c0.4,0.1,0.9,0.1,1.5,0.6l0-0.6c-0.5-0.7-0.4-1-0.3-1.6c0.1-0.5,0.2-0.9,0.8-0.9c0.5,0,0.7,0.4,0.8,0.9c0.1,0.6,0.2,0.9-0.3,1.6
				l0,0.6c0.4-0.3,1-0.6,1.5-0.7c-0.3,1.2-0.9,1.5-1.5,1.6l0,1c0.5-0.4,1.3-1,2-1.1c-0.3,1.6-1.1,2.1-1.9,2.2v1
				c0.7-0.4,1.7-1.2,2.5-1.3c-0.4,1.6-1.4,2.2-2.5,2.3l0,0.9c0.7-0.4,1.7-1.1,2.5-1.2c-0.4,1.5-1.5,2.4-2.5,2.6v0.8
				c0.7-0.4,1.7-1.1,2.5-1.2c-0.4,1.6-1.4,2.5-2.5,2.6v0.6c0.8-0.5,2.1-1.3,3-1.4c-0.5,1.7-1.8,2.6-3,2.8v0.7
				c0.4-0.3,1.3-0.7,1.8-0.8c-0.3,1.2-1.2,1.6-1.8,1.7l0,1.4c0.1,0,0.3,0,0.4,0c0-0.5,0.2-1,0.9-1.4c0,0.4-0.2,0.9-0.3,1.3
				c0.3-0.1,0.7-0.2,1-0.3c-0.2-0.7,0.1-1.7,0.9-2.5c0.1,0.5,0,1.4-0.1,2c0.4-0.2,0.7-0.5,1.1-0.8c-0.4-0.7-0.3-1.7,0.4-2.7
				c0.2,0.5,0.2,1.5,0.2,2.1c0.3-0.3,0.6-0.7,0.9-1.1c-0.5-0.6-0.5-1.3,0.1-2.5c0.2,0.5,0.4,1.3,0.4,1.9c0.3-0.4,0.5-0.6,0.7-1.1
				c-0.1-0.3-0.1-0.6,0.1-0.8c0.2-0.3,0.6-0.5,0.9-0.4c0.4,0.2,0.2,0.7,0.1,1c-0.1,0.2-0.3,0.4-0.6,0.4c-0.2,0.4-0.5,0.8-0.8,1.2
				c0.6,0.2,1.1,0.3,1.5,0.8c-0.9,0.4-1.5,0.3-2-0.1c-0.3,0.4-0.7,0.8-1.1,1.2c0.6,0.2,1,0.4,1.5,0.9c-1,0.4-1.8,0.3-2.2-0.2
				c-0.4,0.3-0.7,0.6-1.1,0.8c0.6,0.3,1,0.6,1.4,1.1c-1.2,0.3-1.9-0.1-2.3-0.7c-0.3,0.1-0.7,0.3-1,0.3c0.3,0.3,0.6,0.5,0.7,0.9
				c-0.8,0-1.2-0.2-1.4-0.7c-0.2,0-0.3,0.1-0.5,0.1v1.6l-1-0.4v-1.1c-0.1,0-0.3-0.1-0.4-0.1c-0.1,0.5-0.5,0.6-1.3,0.7
				c0.2-0.4,0.3-0.6,0.6-0.8c-0.4-0.1-0.7-0.3-1-0.4c-0.3,0.7-1,1-2.2,0.7c0.4-0.5,0.8-1,1.4-1.2c-0.3-0.2-0.6-0.4-0.9-0.7
				c-0.4,0.5-1.2,0.7-2.2,0.2c0.4-0.4,0.8-0.8,1.5-0.9c-0.3-0.3-0.6-0.7-0.9-1.1c-0.5,0.4-1.2,0.5-2.1,0.1c0.4-0.4,0.9-0.9,1.5-0.9
				C4.4,311.7,4.2,311.4,4,311.1z"/>
			<rect x="12.5" y="332.3" class="st18" width="1.4" height="3.6"/>
			<rect x="14.9" y="334.4" class="st18" width="3.6" height="1.4"/>
			<rect x="17.2" y="329.7" class="st18" width="1.4" height="3.6"/>
			<rect x="12.3" y="327.4" class="st18" width="1.1" height="1.1"/>
			<rect x="12.4" y="329.8" class="st18" width="3.6" height="1.4"/>
			<rect x="15" y="332.3" class="st18" width="1.1" height="1.1"/>
			<path class="st18" d="M18.4,347c1.3,0.9,2.7,1.8,4.2,2.6V347v-27.3H0.8C2.4,329,7.2,339.3,18.4,347z M17.2,323.6l0,4.9h2.7v8.6
				h-8.6v-4.9H8.5v-8.6H17.2z"/>
			<rect x="9.8" y="327.6" class="st18" width="1.4" height="3.6"/>
			<rect x="14.6" y="324.7" class="st18" width="1.4" height="3.6"/>
			<rect x="9.8" y="324.7" class="st18" width="3.6" height="1.4"/>
		</g>
	</g>
	<g>
		<polygon class="st19" points="644.8,330.1 831.1,330.1 831.1,341.3 644.8,341.3 644.8,330.1 		"/>
		<polygon class="st20" points="702.4,341.2 696.8,335.6 702.4,330.1 707.9,335.6 702.4,341.2 		"/>
		<path class="st21" d="M646.6,316.9v4.5c0,1.1-0.3,2-1,2.3l-1.2,0.6v0.9c1.8,0,3.6-0.1,5.3-0.1c1.8,0,3.5,0.1,5,0.1
			c3.5,0.1,6-0.4,8.4-1.4c2.9-1.2,5.4-3.7,6.9-7l-3.7,0c-1,2.4-2.7,4.3-5.2,5.5c-2.1,1-4.4,1.1-6.4,1.1c-1.3,0-3.4,0-4.5-0.3v-6.3
			H646.6L646.6,316.9z M673.5,316.9l-2.3,5.1c-0.4,1-1.2,1.8-2.1,1.9l-1.4,0.1v1.2c1.5,0,3-0.1,4.5-0.1c1.1,0,2.6,0.1,4.5,0.1V324
			l-1.4-0.1c-1.2-0.1-1.9-0.3-1.9-1.1c0-0.6,1-3.2,1.4-4.1l0.8-1.9H673.5L673.5,316.9z M687.4,316.9l1.5,3.8c0.4,0.9,0.8,2,0.8,2.5
			c0,0.5-0.8,0.7-1.6,0.8l-1.8,0.1v1.2c2.1,0,3.8-0.1,5.2-0.1c1.8,0,3.5,0.1,5.2,0.1V324l-1.3-0.1c-0.7-0.1-1.1-0.6-1.6-1.3
			c-0.5-0.8-0.9-1.9-1.3-2.7l-1.3-3.1H687.4L687.4,316.9z M697.9,316.9l0.9,2.1c0.8,1.9,1.6,4.1,2.3,6.4h2c0.7-2.4,1.6-4.6,2.5-6.8
			l0.7-1.7h-1.8l-1.3,3.5l-1.4-3.5H697.9L697.9,316.9z"/>
		<path class="st21" d="M650.3,316.9v-16.9c1.1-0.3,3.1-0.3,4.5-0.3c7,0,12.6,1.8,12.6,11.4c0,2.2-0.3,4.1-1,5.8l3.7,0
			c1-2.1,1.5-4.4,1.5-6.9c0-7.6-6-12.1-14-11.9c-1.7,0-4.2,0.1-6.8,0.1c-2.6,0-5.1-0.1-7.7-0.1v1.2l1.6,0.1c0.9,0.1,1.4,0.2,1.6,0.6
			c0.3,0.4,0.4,1.4,0.4,2.9v14H650.3L650.3,316.9z M675.6,316.9l0.3-0.7h11.3l0.3,0.7h3.8l-8.2-19.1h-1.3c-1.1,2.8-2.4,5.7-3.6,8.4
			l-4.7,10.7H675.6L675.6,316.9z M701.7,316.9l-6.3-16.3c-0.4-0.9,0.4-1.2,1.2-1.2l2.2-0.1v-1.2c-1.7,0-3.4,0.1-5.2,0.1
			c-1.8,0-3.5-0.1-5.2-0.1v1.2l1.4,0.1c0.7,0,1.2,0.4,1.7,1.6l6.5,15.9H701.7L701.7,316.9z M706.2,316.9l6.1-14.7
			c0.8-1.9,1.3-2.7,2.1-2.8l1.2-0.1v-1.2c-1.4,0-2.8,0.1-4.2,0.1c-1.4,0-2.8-0.1-4.2-0.1v1.2l2,0.1c1,0.1,1.8,0.4,1,2.5l-5.8,15
			H706.2L706.2,316.9z M676.5,314.6l5-11.6l4.9,11.6H676.5L676.5,314.6z"/>
		<path class="st21" d="M807.6,320.4c0,1.5-0.1,2.5-0.4,2.9c-0.2,0.4-0.7,0.5-1.6,0.6l-1.7,0.1v1.2c1.6,0,3.1-0.1,4.5-0.1
			c1.6,0,3,0.1,4.7,0.1V324l-1.7-0.1c-0.9-0.1-1.4-0.2-1.6-0.6c-0.3-0.4-0.4-1.4-0.4-2.9v-18h0.1l18.4,22.9l3.5,0.6
			c0-0.5-0.1-1-0.1-1.4v-21.6c0-1.5,0.1-2.5,0.4-2.9c0.2-0.4,0.7-0.5,1.6-0.6l1.7-0.1v-1.2c-1.7,0-3.1,0.1-4.7,0.1
			c-1.4,0-3-0.1-4.5-0.1v1.2l1.7,0.1c0.9,0.1,1.4,0.2,1.6,0.6c0.3,0.4,0.4,1.4,0.4,2.9v18.2h-0.1l-18.7-23.1c-0.7,0-1.4,0.1-2.1,0.1
			c-1.4,0-3-0.1-4.7-0.1v1.2l1.7,0.1c0.9,0.1,1.4,0.2,1.6,0.6c0.3,0.4,0.4,1.4,0.4,2.9V320.4L807.6,320.4z"/>
		<path class="st21" d="M789.7,325.9c9.2,0,16.3-6.7,16.3-15.1c0-8.7-6.4-13.4-15.4-13.4c-9.8,0-15.9,6.2-15.9,14.3
			C774.7,320.4,781.1,325.9,789.7,325.9L789.7,325.9z M789.9,299c7.8,0,11.6,5.2,11.6,12.9c0,7.2-3.4,12.3-10.5,12.3
			c-8.4,0-11.8-7.2-11.8-14C779.2,303.8,782.6,299,789.9,299L789.9,299z"/>
		<path class="st21" d="M720.4,302.9c0-1.5,0.1-2.5,0.4-2.9c0.2-0.4,0.7-0.5,1.6-0.6l1.9-0.1v-1.2c-2,0.1-3.9,0.1-5.7,0.1
			c-1.9,0-3.8,0-5.8-0.1v1.2l1.9,0.1c0.9,0,1.4,0.2,1.6,0.6c0.3,0.4,0.4,1.4,0.4,2.9v17.5c0,1.5-0.1,2.5-0.4,2.9
			c-0.2,0.4-0.7,0.5-1.6,0.6l-1.9,0.1v1.2c2-0.1,3.9-0.1,5.8-0.1c1.8,0,3.6,0,5.7,0.1V324l-1.9-0.1c-0.9,0-1.4-0.2-1.6-0.6
			c-0.3-0.4-0.4-1.4-0.4-2.9V302.9L720.4,302.9z M728.9,321.4c0,1.1-0.3,2-1,2.3l-1.2,0.6v0.9c1.8,0,3.6-0.1,5.3-0.1
			c1.8,0,3.5,0.1,5,0.1c3.5,0.1,6-0.4,8.4-1.4c4.7-2,8.4-7.5,8.4-13.9c0-7.6-6-12.1-14-11.9c-1.7,0-4.2,0.1-6.8,0.1
			c-2.6,0-5.1-0.1-7.7-0.1v1.2l1.6,0.1c0.9,0.1,1.4,0.2,1.6,0.6c0.3,0.4,0.4,1.4,0.4,2.9V321.4L728.9,321.4z M732.6,299.9
			c1.1-0.3,3.1-0.3,4.5-0.3c7,0,12.6,1.8,12.6,11.4c0,5.3-1.9,9.3-6.2,11.3c-2.1,1-4.4,1.1-6.4,1.1c-1.3,0-3.4,0-4.5-0.3V299.9
			L732.6,299.9z M771.5,304.5c0-1.8,0.2-3.5,0.5-5.5c-1.6-0.6-3.9-1.6-7.1-1.6c-4.7,0-10,2.8-10,8.8c0,4.1,2.4,6,8.6,6.7
			c4,0.5,6.9,1.5,6.9,5.2c0,3.9-3.5,6-7,6c-3.1,0-6.2-1.5-6.4-3.1l-0.3-2.6h-1.3c0,1.8,0,3.9-0.3,6c1.3,0.6,3.9,1.5,6.7,1.5
			c5.8,0,11.8-3.2,11.8-9.9c0-4.5-3.5-5.8-9-6.4c-4.9-0.5-6.4-2.2-6.4-4.8c0-3.9,3-5.7,5.8-5.7c1.5,0,3.2,0.3,4.3,0.9
			c1.4,0.9,1.6,1.3,1.7,2.3l0.2,2.2H771.5L771.5,304.5z"/>
	</g>
	<g>
		<g>
			<g>
				<defs>
					<path id="SVGID_1_" d="M765.9,221.6c-10.1,0-20.7-5.6-29.2-15.4c-2-2.3-3.7-4.7-5.3-7.1c-0.5-0.8-1-1.7-1.5-2.6
						c-1.4-2.5-2.6-5.2-3.5-7.8c-1.6-4.4-2.4-8.8-2.4-12.9c0-12.7,7.4-22,21.9-27.5c12.7-4.9,27.7-5.6,35.6-5.6
						c11.9,0,20.9,2,26.5,5.9c5.1,3.6,7.8,8.9,7.8,15.8c0,5.6-1.8,15.1-10.3,28c-5.8,8.8-13.4,17.1-20.6,22.4
						C778.7,219.4,772.5,221.6,765.9,221.6"/>
				</defs>
				<defs>
					<path id="SVGID_2_" d="M759.2,144.6c-9.2,1.7-18.5,4.8-25.3,10.3c-0.2,0.1-0.3,0.3-0.5,0.4c-2.6,2.2-4.9,4.8-6.5,7.9
						c-1.9,3.6-3,7.7-3,12.6c0,10.7,5.7,23,14.4,32.3c3.9,4.2,8.5,7.7,13.4,10.1c4.5,2.2,9.3,3.5,14.1,3.5c3.8,0,7.4-0.7,10.7-2.1
						c2.9-1.1,5.6-2.7,8.2-4.7c13.6-10.1,30.9-32.8,30.9-50.5c0-0.6,0-1.1-0.1-1.6c-0.2-3.9-1.4-7.3-3.6-10.2
						c-0.9-1.1-1.9-2.2-3-3.1c-2.5-2-5.9-3.7-10.1-4.8c-4.7-1.3-10.5-2-17.6-2C775.6,142.6,767.5,143,759.2,144.6"/>
				</defs>
				<use xlink:href="#SVGID_1_"  style="overflow:visible;fill:#F26722;"/>
				<use xlink:href="#SVGID_2_"  style="overflow:visible;fill:#F26722;"/>
				<clipPath id="SVGID_3_">
					<use xlink:href="#SVGID_1_"  style="overflow:visible;"/>
				</clipPath>
				<clipPath id="SVGID_4_" class="st22">
					<use xlink:href="#SVGID_2_"  style="overflow:visible;"/>
				</clipPath>
			</g>
		</g>
		<path class="st20" d="M748.6,199.4c-7.5,0.8-13.3-4.1-6.4-7.9c1.6,0.1,2.8,0.3,5.4,0.4c5,0.2,6.6,1.3,7,2.7
			C755.2,196.6,753.4,198.9,748.6,199.4 M739,173.7c0-3.3,2-5.6,5.5-5.6c3.9,0,6,2.9,6,6.5c0,3.3-1.8,5.7-5.3,5.7
			C741.2,180.4,739,177.4,739,173.7 M755.1,189.2c-2.3-1.1-5.8-1.1-11.5-1.6c-2.6-0.2-3.2-1-3.2-2c0-0.6,0.3-1.3,1-1.9
			c0.5-0.4,1.1-0.7,1.7-0.8c0.7,0.1,1.3,0.1,1.8,0.1c6.3,0,9.9-3.8,9.9-8.4c0-1.9-0.7-4-2-5.4c1.4,0,4,0.2,4.8,0.3v-3.3
			c-1.5,0.4-3.2,0.5-4.8,0.5c-1.3,0-2.5-0.2-3.7-0.6c-1.4-0.4-3-0.7-4.4-0.7c-6.4,0-10.3,3.9-10.3,8.9c0,3.5,2.2,6.6,5.5,7.8
			c-2.4,1.1-3.7,2.8-3.7,4.6c0,1.8,1.3,3.7,3.8,4.4c-3.7,1.6-7.1,4.5-4.5,7.8c3.7,4.9,16.9,4.4,21-0.7
			C759.8,194.3,757.7,190.3,755.1,189.2 M770.5,177.2c-3.2-1.6-6.3-3.1-6.3-5.7c0-2.2,2.3-3.2,4.8-3.2c2.5,0,4.9,0.9,6.8,2.4v-3.6
			c-2-1.1-4.4-1.7-6.7-1.7c-4.4,0-9.2,2.2-9.2,7.2c0,4.1,3.6,5.9,7,7.5c3.1,1.5,5.9,2.8,5.9,5.4c0,2.7-2.8,3.2-5.1,3.2
			c-2.1,0-5.4-0.9-8.1-2.3v3.7c2.6,1.1,5.1,1.6,7.9,1.6c4.5,0,10-1.9,10-7.3C777.4,180.8,773.9,178.9,770.5,177.2 M803.1,190.3
			c-1.3,0-3.2-0.4-6.1-3.6c-3.8-4.3-8.2-9.8-8.2-9.8l6.7-6.5c4-3.8,5.1-4.1,5.4-4.1h-6.3c-1.3,1.7-2.7,3-2.7,3l-7.2,6.9v-21.8
			l-5.5,1.5c0.7,1,1,2.6,1,6.3v22.5c0,4.5-0.2,5-0.7,6.3h5.9c-0.4-1.1-0.6-1.8-0.6-6.3v-6.5c0,0,3.2,4,7.3,8.9
			c2.5,3.1,4.6,4.5,7,4.5c1.9,0,3.6-0.5,4.8-1.4C803.7,190.3,803.4,190.3,803.1,190.3"/>
	</g>
	<path class="st23" d="M35.4,169.2h-1.2c-1,3.7-2.4,8.8-3.7,13.8c5.5,0,8.9-1,10.6-6.4C42.4,172.2,41.9,169.2,35.4,169.2z"/>
	<path class="st23" d="M137.2,170.7c-3.1-14.9-23.4-24.1-48.6-24.1c-7.4,0-15.3,0.8-23.3,2.5c-32.9,6.9-57.1,26.2-57.1,44.5
		c0,1.4,0.1,2.8,0.4,4.2c2.4,11.4,14.3,19.5,30.8,22.8c3.5-13.5,11.5-44.4,11.5-44.4c1.6-6.1,2.5-8.5,4-11.1c2-3.4,5.3-6.3,9.9-6.7
		c2.5-0.2,6.2,0.1,8.2,1.5c2,1.4,2.2,2.8,2.1,4.1c-0.1,2.7-1.8,4.5-4.4,4.5c-2.7,0-3.6-2-3.6-3.3c0-1.8,1-2.1,1-3.4
		c0-0.7-0.6-1.7-2.3-1.5c-2.1,0.3-3.8,2-5,4.9c-0.3,0.7-0.6,1.6-1,3.1l-2.1,8.1h13.5c-1.8,6.4-4.8,17.8-5.6,21H59l4.8-17.7H57
		L46.3,221c3.5,0.4,7.1,0.6,10.9,0.6c7.2,0,14.9-0.8,22.7-2.4c32.7-6.8,57.7-26.2,57.7-44.4C137.6,173.4,137.5,172.1,137.2,170.7z
		 M48.3,176.7c-1.3,5.5-4.6,9.5-18.7,9.5c-1.4,5.1-2.6,9.6-3,11.2h-6.9c1.3-4.7,8.5-31.5,8.5-31.5h8C48.5,166,49.3,172.3,48.3,176.7
		z M87.7,197.4H70c0-6.7,11.2-14.5,13.4-17.7h-9.6l0.9-3.2h17.3c-2,6.6-11.4,11.9-14,16.9h10.9L87.7,197.4z M105.4,196.4
		c-1.9,1-4.1,1.5-6.5,1.5c-5.2,0-8.8-3.3-8.8-8.1h0c0-7.6,6.8-14.1,14.2-14.1c3.6,0,6.8,1.7,6.8,4.6c0,3-2.4,6.1-6,7.2
		c-2.2,0.7-4.5,1.2-8.3,1.2c-0.1,0.8-0.1,1.1-0.1,1.5c0,2,1.7,3.8,4.1,3.8c3.2,0,6.3-3,6.6-3.3l1.2,3.2
		C107.7,194.9,106.6,195.8,105.4,196.4z M129.6,183.6c-1.3,0-1.8-0.5-2-0.7c-0.6-0.6-0.7-1.2-0.7-1.7c-0.1-0.6-0.3-1.1-0.9-1.3
		c-1-0.2-1.8,0.2-2.6,1c-1.1,1-2.1,2.5-2.7,4c-0.5,1-0.8,2-1,2.7l-2.7,9.8H110l5.7-21h6.7l-1.2,4.2c1.6-1.9,4.5-4.6,7.2-4.6h0
		c3.8,0,4.4,2.3,4.4,4C132.8,182.2,131.3,183.6,129.6,183.6z"/>
</g>
</svg>